<svg width="127" height="119" viewBox="0 0 127 119" fill="none" xmlns="http://www.w3.org/2000/svg" class="s-ion-icon">
<path fill-rule="evenodd" clip-rule="evenodd" d="M75.0467 97.2532H17.6222C13.5804 97.2532 10.272 93.935 10.272 89.8796V7.98951C10.272 3.93411 13.5804 0.617554 17.6222 0.617554H75.0467C79.0901 0.617554 82.3986 3.93411 82.3986 7.98951V89.8796C82.3986 93.935 79.0901 97.2532 75.0467 97.2532Z" fill="#1A223A"></path>
<path fill-rule="evenodd" clip-rule="evenodd" d="M70.1448 100.755H12.7204C8.67856 100.755 5.37012 97.4363 5.37012 93.3809V11.4909C5.37012 7.43545 8.67856 4.1189 12.7204 4.1189H70.1448C74.1883 4.1189 77.4967 7.43545 77.4967 11.4909V93.3809C77.4967 97.4363 74.1883 100.755 70.1448 100.755Z" fill="#131A30"></path>
<path fill-rule="evenodd" clip-rule="evenodd" d="M65.3769 103.519H7.83371C3.78354 103.519 0.468262 100.214 0.468262 96.1755V14.6245C0.468262 10.5859 3.78354 7.28308 7.83371 7.28308H65.3769C69.4287 7.28308 72.7439 10.5859 72.7439 14.6245V96.1755C72.7439 100.214 69.4287 103.519 65.3769 103.519Z" fill="#3B414D"></path>
<path fill-rule="evenodd" clip-rule="evenodd" d="M65.3769 103.519H7.83371C3.78354 103.519 0.468262 100.214 0.468262 96.1755V14.6245C0.468262 10.5859 3.78354 7.28308 7.83371 7.28308H65.3769C69.4287 7.28308 72.7439 10.5859 72.7439 14.6245V96.1755C72.7439 100.214 69.4287 103.519 65.3769 103.519Z" fill="#1A223A"></path>
<path fill-rule="evenodd" clip-rule="evenodd" d="M57.0825 32.1292H14.5799C13.3661 32.1292 12.3726 31.1839 12.3726 30.0292C12.3726 28.8728 13.3661 27.9276 14.5799 27.9276H57.0825C58.2963 27.9276 59.2899 28.8728 59.2899 30.0292C59.2899 31.1839 58.2963 32.1292 57.0825 32.1292Z" fill="#273357"></path>
<path fill-rule="evenodd" clip-rule="evenodd" d="M57.0825 44.7338H14.5799C13.3661 44.7338 12.3726 43.7885 12.3726 42.6338C12.3726 41.4775 13.3661 40.5322 14.5799 40.5322H57.0825C58.2963 40.5322 59.2899 41.4775 59.2899 42.6338C59.2899 43.7885 58.2963 44.7338 57.0825 44.7338Z" fill="#273357"></path>
<path fill-rule="evenodd" clip-rule="evenodd" d="M57.0825 57.3385H14.5799C13.3661 57.3385 12.3726 56.3933 12.3726 55.2385C12.3726 54.0838 13.3661 53.137 14.5799 53.137H57.0825C58.2963 53.137 59.2899 54.0838 59.2899 55.2385C59.2899 56.3933 58.2963 57.3385 57.0825 57.3385Z" fill="#273357"></path>
<path fill-rule="evenodd" clip-rule="evenodd" d="M57.0825 69.9431H14.5799C13.3661 69.9431 12.3726 68.9979 12.3726 67.8431C12.3726 66.6868 13.3661 65.7416 14.5799 65.7416H57.0825C58.2963 65.7416 59.2899 66.6868 59.2899 67.8431C59.2899 68.9979 58.2963 69.9431 57.0825 69.9431Z" fill="#273357"></path>
<path fill-rule="evenodd" clip-rule="evenodd" d="M36.7656 82.5477H14.5893C13.3704 82.5477 12.3726 81.6025 12.3726 80.4478C12.3726 79.2914 13.3704 78.3462 14.5893 78.3462H36.7656C37.9846 78.3462 38.9824 79.2914 38.9824 80.4478C38.9824 81.6025 37.9846 82.5477 36.7656 82.5477Z" fill="#273357"></path>
<path fill-rule="evenodd" clip-rule="evenodd" d="M72.6803 65.1102C63.3843 72.7272 50.1967 72.3825 41.3388 64.9112C40.2083 63.9414 39.1466 62.8728 38.1753 61.6878C37.6751 61.0796 37.2086 60.4567 36.7752 59.8068C35.9082 58.5086 35.1716 57.1427 34.5952 55.7498C33.5701 53.3921 32.9575 50.9374 32.7377 48.4411C32.0067 40.6084 35.0598 32.5583 41.5955 27.2047C48.1471 21.8347 56.64 20.4371 64.1793 22.6782C66.581 23.3981 68.8698 24.481 70.982 25.9349C72.235 26.7897 73.412 27.7784 74.5166 28.8835C75.0673 29.4341 75.5863 30.0156 76.0845 30.6255C77.0576 31.8106 77.9114 33.0609 78.6242 34.36C84.2132 44.5098 81.9588 57.5075 72.6803 65.1102Z" fill="white" fill-opacity="0.1"></path>
<path fill-rule="evenodd" clip-rule="evenodd" d="M70.479 63.2101C60.8074 71.1377 46.5486 69.7218 38.621 60.0503C30.7038 50.3897 32.1182 36.129 41.7913 28.2031C51.4519 20.286 65.7109 21.7003 73.628 31.3609C81.554 41.0323 80.1396 55.2929 70.479 63.2101ZM78.6018 27.289C68.4281 14.8749 50.1267 13.0597 37.7126 23.2334C25.3003 33.4057 23.4741 51.7176 33.6462 64.1315C42.9058 75.4266 58.9247 77.9512 71.0931 70.6382C72.2817 69.9228 73.4393 69.1035 74.5567 68.1892C75.6727 67.2732 76.7035 66.299 77.6368 65.2739C87.1977 54.7775 87.8596 38.5855 78.6018 27.289Z" fill="#344063"></path>
<path fill-rule="evenodd" clip-rule="evenodd" d="M114.769 115.169L114.248 115.596C110.8 118.424 105.663 117.914 102.836 114.464L76.7449 82.6275L89.81 71.9203L115.901 103.757C118.728 107.207 118.219 112.342 114.769 115.169Z" fill="url(#paint0_linear_8825_6110)"></path>
<path fill-rule="evenodd" clip-rule="evenodd" d="M78.3491 64.4503L86.0591 73.8582L79.3803 79.3301L71.6719 69.9224C72.8848 69.1924 74.0644 68.3562 75.2063 67.4234C76.3449 66.4903 77.3967 65.4963 78.3491 64.4503Z" fill="#262624"></path>
<path fill-rule="evenodd" clip-rule="evenodd" d="M115.503 103.358L102.521 113.995L100.606 111.657L113.586 101.019L115.503 103.358Z" fill="#184E7E"></path>
<path fill-rule="evenodd" clip-rule="evenodd" d="M90.4264 72.3944L77.089 83.3251L75.4649 81.3437L88.8024 70.413L90.4264 72.3944Z" fill="#184E7E"></path>
<defs>
<linearGradient id="paint0_linear_8825_6110" x1="101.668" y1="51.2819" x2="54.1792" y2="90.2008" gradientUnits="userSpaceOnUse">
<stop stop-color="#296AA4"></stop>
<stop offset="1" stop-color="#0E5DA4"></stop>
</linearGradient>
</defs>
</svg>